<svg id="Layer_1" data-name="Layer 1" xmlns="http://www.w3.org/2000/svg" viewBox="286.41 240 508.76 599"><defs><style>.cls-1{fill:#fff;}</style></defs><title>time capsul1 (1)</title><path d="M795.17,753.79A298.53,298.53,0,0,1,585.91,839c-165.4,0-299.5-134.07-299.5-299.5S420.51,240,585.91,240a298.47,298.47,0,0,1,207.27,83.31l-90.88,161c2.68.64,5.33,1.36,7.78,2.14,13.18,4.17,26.92,18.1,34.22,34.65a67.45,67.45,0,0,1-.52,56.31c-6.44,13.92-17.79,24.52-32.36,30.89Z"></path><path class="cls-1" d="M725.94,569.15c-14.75,31.84-64.17,31.38-85,16.37,0,0,10.29,54.59-13.82,75.88s-42.39,21.17-63.32,13.36-38.39-25.29-35.92-68.69c-.13,2.5-12.61,7.79-14.44,8.67-10.77,5.13-22.74,8.3-34.75,7.58a55,55,0,0,1-29-10.52c-15.05-10.91-24.41-25.25-26.73-43.68-2.09-16.45,1-33.49,11-47a61.26,61.26,0,0,1,8-8.74c11.14-10.11,26.53-14.82,42-16.63-6.11-10.18-28.21-52.78,9.23-83.92,0,0,27.56-25.61,65.49-3.85,19.08,11,27.56,33.68,31,53.71,0,0,5.62-8,14.39-24.57s49.63-35.61,74.92,0c0,0,20.45,22.41-6,62,0,0,18.82,2.17,31.14,6.09S740.69,537.28,725.94,569.15Z"></path></svg>